<svg xmlns="http://www.w3.org/2000/svg" width="307" height="352" fill="#f2f2f2"><path fill="url(#a)" d="m264 19 16.4 7 8 18.8-262 307L.4 328l264-309z" opacity=".5"/><path d="M283 .4a5 5 0 0 0-5 4.5l-.5 5.8c-.5 4.5-3.7 7.7-7.3 8.1l-5.3.6a5 5 0 0 0-4.4 5 5 5 0 0 0 4.4 5.1l5.3.6c3.6.5 6.8 3.7 7.3 8.1l.6 5.8a5 5 0 0 0 5 4.6 5 5 0 0 0 4.8-4.6l.6-5.8c.5-4.4 3.7-7.6 7.3-8l5.3-.7a5 5 0 0 0 4.4-5 5 5 0 0 0-4.4-5l-5.3-.7c-3.6-.4-6.8-3.6-7.3-8L288 5a5 5 0 0 0-5-4.6z"/><path fill="#005" d="m266 25.8 5.3.6c5.6.7 10 5.5 10.6 11.5l.6 5.8c0 .6.6 1.2 1.2 1.2s1.1-.5 1.2-1.2l.6-5.8c.6-6 5-10.8 10.6-11.5l5.3-.6c.6 0 1-.6 1-1.3s-.4-1.2-1-1.3l-5.3-.6c-5.6-.7-10-5.5-10.6-11.5l-.6-5.8c0-.7-.6-1.2-1.2-1.2s-1.1.5-1.2 1.2l-.6 5.8c-.6 6-5 10.8-10.6 11.5l-5.3.6c-.6 0-1 .6-1 1.3s.4 1.2 1 1.3z"/><path fill="#FFF6B8" d="M284 36.6c1-6.1 5.5-11 11.2-12.1-5.7-1.1-10.2-6-11.2-12.1-1 6.1-5.5 11-11.2 12.1 5.7 1.1 10.2 6 11.2 12.1z"/><defs><linearGradient id="a" x1="288" x2="14.2" y1="18.5" y2="339" gradientUnits="userSpaceOnUse"><stop offset="0" stop-color="#FFF6B8"/><stop offset="1" stop-color="#FFF6B8" stop-opacity="0"/></linearGradient></defs></svg>