<svg xmlns="http://www.w3.org/2000/svg" width="299" height="71" fill="none"><path fill="#005" d="M46.93 12.82c-1.65 0-2.98.54-3.98 1.62-1.01 1.08-1.51 2.58-1.51 4.5s.5 3.42 1.5 4.5a5.18 5.18 0 0 0 3.99 1.62 5.2 5.2 0 0 0 3.98-1.66 6.27 6.27 0 0 0 1.55-4.46c0-1.89-.51-3.38-1.55-4.48a5.24 5.24 0 0 0-3.98-1.64zm-29.39 0c-1.65 0-2.98.54-3.99 1.62-1 1.08-1.5 2.58-1.5 4.5s.5 3.42 1.5 4.5a5.18 5.18 0 0 0 3.99 1.62 5.2 5.2 0 0 0 3.98-1.66 6.27 6.27 0 0 0 1.55-4.46c0-1.89-.51-3.38-1.55-4.48a5.24 5.24 0 0 0-3.98-1.64z"/><path fill="#005" d="M289.96 28.26a7.7 7.7 0 0 1-3.38 2.6c-1.47.64-3.21.95-5.22.95-3.4 0-6.1-.75-8.15-2.25a9.07 9.07 0 0 1-3.31-4.7l7-1.73c.12 1.08.58 1.9 1.38 2.47.8.57 1.82.86 3.08.86.87 0 1.53-.2 1.98-.61.45-.4.68-.94.68-1.6 0-.87-.42-1.5-1.24-1.87-.83-.37-2.17-.77-4.03-1.19-1.86-.39-3.4-.8-4.6-1.26a7.57 7.57 0 0 1-3.1-2.18c-.87-1-1.3-2.38-1.3-4.12 0-2.25.85-4.07 2.56-5.47 1.71-1.4 4.13-2.1 7.25-2.1 3.18 0 5.72.8 7.63 2.4a10.09 10.09 0 0 1 3.14 4.61l-6.76 1.69a4 4 0 0 0-1.42-2.41 4.3 4.3 0 0 0-2.77-.88c-.87 0-1.53.19-1.98.56-.45.38-.68.91-.68 1.6 0 .78.41 1.37 1.24 1.76.83.39 2.12.78 3.9 1.16 1.91.46 3.49.91 4.72 1.38a7.8 7.8 0 0 1 3.2 2.27 6.28 6.28 0 0 1 1.35 4.23c0 1.44-.4 2.72-1.17 3.83zm-28.77 3.24-8.27-10.67V31.5h-7.7V6.38h7.7v10.09l8.27-10.09h9.04L260.1 18.94l10.36 12.56h-9.27zm-22 1.56a14.13 14.13 0 0 1-6.39 2.5c-2.47.35-4.75.15-6.86-.59-2.1-.74-3.86-2-5.25-3.77a13.44 13.44 0 0 1-2.65-6.53c-.37-2.58-.14-4.92.7-7a11.36 11.36 0 0 1 3.97-5.1 14.26 14.26 0 0 1 6.42-2.5c2.46-.35 4.74-.16 6.83.58 2.04.73 3.75 1.95 5.12 3.64l-5.88 4.95a4.84 4.84 0 0 0-5.12-2.57 4.9 4.9 0 0 0-3.45 2.1c-.84 1.2-1.12 2.8-.84 4.79.3 1.99 1 3.43 2.15 4.32a4.93 4.93 0 0 0 3.9 1.03 4.86 4.86 0 0 0 4.2-3.88l7.05 3.06a11.37 11.37 0 0 1-3.9 4.97zm-25.9-1.7-7.52-1.35.8-4.48a7.86 7.86 0 0 1-3.64 2.96 9.1 9.1 0 0 1-5.1.4 10.17 10.17 0 0 1-5.2-2.5c-1.43-1.31-2.43-3.01-3.02-5.1a15.5 15.5 0 0 1-.18-6.98c.47-2.6 1.34-4.77 2.61-6.5a10.65 10.65 0 0 1 4.6-3.7c1.8-.74 3.7-.92 5.75-.55a9.1 9.1 0 0 1 4.64 2.16c1.2 1.1 2 2.45 2.38 4.04l.8-4.47 7.54 1.36-4.45 24.71zm-26.83.14h-7.7V17.8c0-1.67-.44-2.99-1.32-3.93a4.61 4.61 0 0 0-3.54-1.42c-1.56 0-2.8.5-3.7 1.48-.92 1-1.38 2.4-1.38 4.24V31.5h-7.7V6.38h7.7v4.6a8.28 8.28 0 0 1 3.22-3.56 9.44 9.44 0 0 1 5.02-1.3c2.88 0 5.16.95 6.86 2.87 1.7 1.92 2.54 4.56 2.54 7.93V31.5zm-29.3-3.24a7.71 7.71 0 0 1-3.37 2.6 13.2 13.2 0 0 1-5.22.95c-3.4 0-6.11-.75-8.15-2.25a9.07 9.07 0 0 1-3.32-4.7l7-1.73c.13 1.08.59 1.9 1.38 2.47.8.57 1.83.86 3.09.86.87 0 1.53-.2 1.97-.61.46-.4.68-.94.68-1.6 0-.87-.41-1.5-1.24-1.87-.82-.37-2.16-.77-4.03-1.19-1.86-.39-3.39-.8-4.59-1.26a7.57 7.57 0 0 1-3.1-2.18c-.87-1-1.3-2.38-1.3-4.12 0-2.25.85-4.07 2.56-5.47 1.7-1.4 4.12-2.1 7.24-2.1 3.18 0 5.73.8 7.63 2.4a10.08 10.08 0 0 1 3.14 4.61l-6.76 1.69a4 4 0 0 0-1.42-2.41 4.3 4.3 0 0 0-2.76-.88c-.88 0-1.54.19-1.99.56-.45.38-.67.91-.67 1.6 0 .78.41 1.37 1.24 1.76.82.39 2.12.78 3.89 1.16 1.92.46 3.5.91 4.73 1.38a7.8 7.8 0 0 1 3.2 2.27 6.28 6.28 0 0 1 1.34 4.23c0 1.44-.39 2.72-1.17 3.83zm-22.45-6.98h-18.17c.26 1.05.71 1.9 1.36 2.58a5.29 5.29 0 0 0 3.98 1.69 5.21 5.21 0 0 0 4.46-2.34l6.73 2.76a11.36 11.36 0 0 1-4.51 4.3 14.12 14.12 0 0 1-6.69 1.54c-2.49 0-4.72-.51-6.7-1.55a11.34 11.34 0 0 1-4.66-4.48 13.45 13.45 0 0 1-1.69-6.84c0-2.61.56-4.89 1.69-6.84a11.35 11.35 0 0 1 4.66-4.48 14.25 14.25 0 0 1 6.7-1.55c2.5 0 4.72.52 6.69 1.55a11.39 11.39 0 0 1 4.63 4.48c.7 1.22 1.19 2.56 1.45 4.03a15.84 15.84 0 0 1 .07 5.15zM106.12 31.5h-7.65V17.8c0-1.58-.43-2.82-1.28-3.7a4.62 4.62 0 0 0-3.5-1.34c-1.52 0-2.73.48-3.61 1.42-.89.95-1.33 2.28-1.33 3.99V31.5h-7.7V17.8c0-1.58-.42-2.82-1.26-3.7-.84-.9-2-1.34-3.47-1.34-1.53 0-2.74.47-3.64 1.4-.9.93-1.35 2.27-1.35 4V31.5h-7.7V6.38h7.7v4.28a7.49 7.49 0 0 1 3.04-3.33 9.22 9.22 0 0 1 4.79-1.22c1.92 0 3.62.45 5.09 1.33a8.34 8.34 0 0 1 3.33 3.8c.87-1.56 2.06-2.8 3.58-3.73a9.4 9.4 0 0 1 5.01-1.4c3.1 0 5.52.96 7.3 2.86 1.77 1.9 2.65 4.56 2.65 7.95V31.5zm-46 0h-7.65v-4.55a7.86 7.86 0 0 1-3.07 3.56 9.1 9.1 0 0 1-4.95 1.3c-2.07 0-3.92-.51-5.56-1.55a10.6 10.6 0 0 1-3.87-4.48 15.5 15.5 0 0 1-1.41-6.84c0-2.64.47-4.93 1.41-6.86a10.64 10.64 0 0 1 3.87-4.46 10.17 10.17 0 0 1 5.56-1.55 9.1 9.1 0 0 1 4.95 1.3 7.86 7.86 0 0 1 3.07 3.56V6.38h7.65V31.5zm-29.4 1.68c0 4.67-3.79 8.47-8.46 8.47H7.48V35.2h13.75c1.02 0 1.84-.83 1.84-1.85v-6.4a7.86 7.86 0 0 1-3.06 3.55 9.1 9.1 0 0 1-4.95 1.3c-2.07 0-3.92-.51-5.56-1.55a10.62 10.62 0 0 1-3.87-4.48 15.5 15.5 0 0 1-1.42-6.84c0-2.64.48-4.93 1.42-6.86A10.64 10.64 0 0 1 9.5 7.62a10.17 10.17 0 0 1 5.56-1.55 9.1 9.1 0 0 1 4.95 1.3 7.86 7.86 0 0 1 3.06 3.56V6.38h7.65v26.8zm265.2-11.42-.6-.65-.2-.2-.2-.19-.19-.2-.2-.19-.18-.19-.1-.1.54-.13a3.25 3.25 0 0 0 2.3-4.2 13.36 13.36 0 0 0-3.48-5.49l-.2-.19-.19-.2-.2-.19-.19-.19-.19-.2-.2-.19-.19-.2-.19-.18-.2-.2-.19-.2-.19-.18-.2-.2-.19-.2-.19-.19-.2-.19-.19-.2-.19-.19-.2-.19a13.8 13.8 0 0 0-.85-.78c-2.5-2.09-5.76-3.14-9.71-3.14-1.27 0-2.45.1-3.56.31h-14.8c-.98 0-1.9.44-2.52 1.19l-1.45 1.77a3.3 3.3 0 0 0-.17-.16 3.4 3.4 0 0 0-.2-.2 3.37 3.37 0 0 0-.19-.2 3.1 3.1 0 0 0-.19-.19 3.36 3.36 0 0 0-.2-.19 3.1 3.1 0 0 0-.19-.2 3.5 3.5 0 0 0-.19-.19 3.52 3.52 0 0 0-.2-.19 3.5 3.5 0 0 0-.19-.2 3.39 3.39 0 0 0-.19-.19 3.24 3.24 0 0 0-2.4-1.05h-7.69a3.25 3.25 0 0 0-3.25 3.25v4.14a14.56 14.56 0 0 0-4.92-2.93 16.65 16.65 0 0 0-5.59-.94 19.71 19.71 0 0 0-7.58 1.54c-.08-.1-.17-.18-.27-.27a3.08 3.08 0 0 0-.19-.19 3.9 3.9 0 0 0-.39-.39 3.5 3.5 0 0 0-.19-.2 3.2 3.2 0 0 0-.2-.18 3.5 3.5 0 0 0-.19-.2 3.38 3.38 0 0 0-.19-.2 3.25 3.25 0 0 0-.2-.18 3.1 3.1 0 0 0-.19-.2 3.09 3.09 0 0 0-.19-.2 3.33 3.33 0 0 0-.2-.19 3.5 3.5 0 0 0-.19-.19 3.36 3.36 0 0 0-.19-.2 3.4 3.4 0 0 0-.2-.19 3 3 0 0 0-.19-.19 3.08 3.08 0 0 0-.2-.2 3.5 3.5 0 0 0-.18-.19 3.33 3.33 0 0 0-.2-.19 3.23 3.23 0 0 0-1.8-1l-7.54-1.35a3.23 3.23 0 0 0-2.42.52 13.11 13.11 0 0 0-5.41-2.25 13.42 13.42 0 0 0-7.55.73 13.9 13.9 0 0 0-6 4.8c-.55.76-1.05 1.6-1.48 2.5l-.03-.03-.19-.2-.2-.19-.19-.19-.19-.2a11.9 11.9 0 0 0-.2-.19l-.19-.2-.19-.18-.2-.2-.19-.2-.19-.18c-2.29-2.37-5.28-3.57-8.91-3.57-1.77 0-3.4.3-4.89.88-.3.12-.6.28-.9.47l-.04-.04a3.24 3.24 0 0 0-2.19-1.03l-7.92-.01a3.25 3.25 0 0 0-3.25 3.25v.9l-.14-.14-.2-.2-.19-.19c-.27-.27-.56-.54-.86-.8-2.5-2.08-5.77-3.13-9.72-3.13-3.87 0-7 .95-9.3 2.82a10.23 10.23 0 0 0-2.53 3.02l-.1-.1-.2-.2-.19-.19-.2-.19-.19-.2-.19-.19a14.65 14.65 0 0 0-3.79-2.85 17.41 17.41 0 0 0-8.2-1.92c-3 0-5.77.64-8.21 1.92a14.53 14.53 0 0 0-5.23 4.6l-.18-.19-.2-.19-.19-.2-.19-.19-.2-.19-.19-.2-.19-.19-.2-.19-.19-.2-.19-.19-.2-.19-.19-.2-.19-.19-.2-.19-.19-.2c-2.37-2.37-5.52-3.58-9.37-3.58a12.66 12.66 0 0 0-8.44 3.13c-.55-.5-1.16-.94-1.8-1.34a12.91 12.91 0 0 0-6.77-1.79c-1.64 0-3.18.26-4.58.78-.3.11-.62.26-.94.43a3.24 3.24 0 0 0-2.29-.94h-18.9c-.9 0-1.7.36-2.28.95a13.12 13.12 0 0 0-5.72-1.26c-2.7 0-5.15.69-7.3 2.05-.68.43-1.3.92-1.89 1.47l-.03-.03a3.33 3.33 0 0 0-.19-.2 3.13 3.13 0 0 0-.2-.18 3.26 3.26 0 0 0-.19-.2 3.23 3.23 0 0 0-.19-.2 3.14 3.14 0 0 0-.2-.19 3.5 3.5 0 0 0-.19-.19 3.48 3.48 0 0 0-.19-.2 3.36 3.36 0 0 0-.2-.19 3.25 3.25 0 0 0-.19-.19 3.37 3.37 0 0 0-.19-.2 3.22 3.22 0 0 0-.2-.19 3.24 3.24 0 0 0-2.38-1.05h-7.8c-.86.04-1.62.42-2.18 1a7.2 7.2 0 0 0-.96-.49 13.12 13.12 0 0 0-4.73-.82c-2.69 0-5.14.69-7.3 2.05a13.9 13.9 0 0 0-5.05 5.78 18.75 18.75 0 0 0-1.75 8.29c0 3.1.59 5.87 1.75 8.26a14.69 14.69 0 0 0 2.75 3.94l.2.2.18.2.2.18.2.2.03.04h-.18c-1.03 0-1.86.83-1.86 1.85v7.84c0 .94.4 1.8 1.05 2.39l.2.2.19.18c.06.07.12.14.2.2l.18.2.2.19c.06.06.12.13.2.19l.18.2.2.19c.06.06.12.13.2.19.05.07.12.13.19.2l.19.19.2.19c.05.07.12.13.19.2l.19.19.2.19a3 3 0 0 0 .19.2l.19.19.2.19c.59.65 1.44 1.05 2.38 1.05h14.78c6.48 0 11.72-5.24 11.72-11.72v-2.91l.1.1.2.2.2.18.18.2a13.42 13.42 0 0 0 9.8 4.12c1.72 0 3.32-.28 4.76-.84.3-.1.63-.25.97-.42.58.59 1.39.95 2.28.95H75c1.8 0 3.26-1.46 3.26-3.26v-2.01c.16.27.36.52.6.73.05.07.12.13.19.2l.19.19.2.2.19.18.19.2.2.2.19.18.19.2.2.2.19.18.19.2.2.2.19.19.19.19.2.2.19.19c.06.06.12.13.2.19l.18.2c.6.64 1.45 1.05 2.4 1.05h7.7c1.79 0 3.25-1.46 3.25-3.26v-2.01c.16.27.36.52.6.73l.18.2.2.19.2.2.19.18.19.2.2.2.19.18.19.2.2.2.19.18.19.2.2.2.19.19.19.19.2.2.19.19.19.19.2.2c.59.64 1.44 1.05 2.39 1.05h7.65c1.8 0 3.25-1.46 3.25-3.26v-1.69l.03.02.19.2.2.2.19.18.19.2a14.6 14.6 0 0 0 3.49 2.54 17.54 17.54 0 0 0 8.2 1.92c3.02 0 5.78-.65 8.21-1.93a14.55 14.55 0 0 0 4.94-4.24l.1.1.2.2.2.19c.05.07.12.13.19.2l.19.19.2.19c.05.07.12.13.19.2l.19.19.2.19c.54.6 1.15 1.15 1.82 1.64 2.6 1.91 5.99 2.88 10.07 2.88 2.44 0 4.63-.4 6.5-1.2.9-.4 1.7-.86 2.43-1.4l.07.07a3 3 0 0 0 .2.2c.06.06.12.13.2.19l.18.2.2.19.2.19c.05.07.12.13.19.2.59.64 1.44 1.05 2.39 1.05h7.7c1.79 0 3.25-1.46 3.25-3.26V32.7c.18.46.46.86.82 1.19l.19.2.2.19.19.2.19.18.2.2.19.2.19.18.2.2.19.2.19.18.2.2.19.2.2.19.18.19.2.2.2.19.19.19.19.2c.6.64 1.44 1.05 2.39 1.05h7.7c1.8 0 3.25-1.46 3.25-3.26v-3.42a13.42 13.42 0 0 0 7.53 4.03c1.7.3 3.32.3 4.84.01.3-.05.63-.13.97-.23l.14.14.2.2c.45.5 1.07.86 1.8.99l7.53 1.35a3.25 3.25 0 0 0 3.77-2.62l.04-.19.16.17.2.2.19.19.2.2.19.18.19.2.2.2.19.19.2.19.18.2.2.19.2.19.19.2.19.19.2.19a14.57 14.57 0 0 0 5.45 3.4c1.76.63 3.65.94 5.6.94.9 0 1.85-.07 2.8-.2a17.42 17.42 0 0 0 7.84-3.08 14.9 14.9 0 0 0 1.99-1.74c.57.5 1.31.8 2.13.8h7.7c1.79 0 3.25-1.46 3.25-3.26v-.41l.1.1.2.18.19.2.19.2.2.18.19.2a3.88 3.88 0 0 0 .38.39l.2.19.2.2.18.19.2.19.2.2.18.19a3.25 3.25 0 0 0 2.4 1.06h16.17l-.04-.05c1.26.23 2.6.36 4.04.36 2.45 0 4.64-.4 6.5-1.2a10.95 10.95 0 0 0 4.76-3.74 9.72 9.72 0 0 0 1.77-5.7c0-2.55-.72-4.69-2.14-6.34z"/><path fill="#005" d="M121.85 12.13c-2.19 0-4.73 1-5.18 4.47h10.49c-.4-3.22-2.89-4.47-5.3-4.47zm81.78-1.49c-1.63-.29-3.03 0-4.21.9-1.18.88-1.94 2.27-2.28 4.16-.34 1.89-.11 3.45.68 4.7.8 1.23 2.01 2 3.64 2.3 1.6.28 3-.03 4.21-.94a6.27 6.27 0 0 0 2.32-4.11c.34-1.86.1-3.42-.73-4.68a5.24 5.24 0 0 0-3.63-2.33z"/><path fill="#F2F2F2" d="M153.79 17.93c-1.23-.47-2.8-.92-4.73-1.38a19.65 19.65 0 0 1-3.9-1.17c-.82-.39-1.23-.97-1.23-1.75 0-.7.22-1.22.67-1.6.46-.37 1.11-.56 1.99-.56 1.1 0 2.03.3 2.76.88a4 4 0 0 1 1.42 2.4l6.76-1.68a10.08 10.08 0 0 0-3.14-4.62c-1.9-1.59-4.44-2.38-7.63-2.38-3.12 0-5.53.7-7.24 2.1a6.72 6.72 0 0 0-2.57 5.46c0 1.74.44 3.11 1.3 4.12.88 1 1.91 1.73 3.11 2.18 1.2.45 2.73.87 4.6 1.26 1.85.42 3.2.82 4.02 1.2.83.37 1.24 1 1.24 1.86 0 .66-.22 1.2-.67 1.6-.45.4-1.12.6-1.99.6a5.17 5.17 0 0 1-3.08-.85 3.34 3.34 0 0 1-1.37-2.47l-7 1.74a9.08 9.08 0 0 0 3.3 4.7c2.05 1.5 4.76 2.24 8.16 2.24 2 0 3.75-.31 5.22-.94a7.72 7.72 0 0 0 3.37-2.61 6.49 6.49 0 0 0 1.17-3.83c0-1.77-.45-3.18-1.35-4.23a7.82 7.82 0 0 0-3.2-2.27zm-37.12-1.33c.45-3.46 2.99-4.47 5.18-4.47 2.42 0 4.91 1.25 5.3 4.47h-10.48zm16.52-4.5a11.39 11.39 0 0 0-4.63-4.48 14.13 14.13 0 0 0-6.69-1.55c-2.49 0-4.72.52-6.7 1.55a11.35 11.35 0 0 0-4.66 4.48 13.45 13.45 0 0 0-1.69 6.84c0 2.61.56 4.9 1.69 6.84a11.34 11.34 0 0 0 4.66 4.48 14.25 14.25 0 0 0 6.7 1.55c2.5 0 4.72-.51 6.69-1.55 1.9-1 3.4-2.43 4.51-4.29l-6.73-2.76a5.21 5.21 0 0 1-4.46 2.34c-1.58 0-2.9-.56-3.98-1.69a5.6 5.6 0 0 1-1.36-2.58h18.17a16.08 16.08 0 0 0-.07-5.15 12.34 12.34 0 0 0-1.45-4.03zM21.52 23.4a5.2 5.2 0 0 1-3.98 1.66 5.18 5.18 0 0 1-3.99-1.62c-1-1.08-1.5-2.58-1.5-4.5s.5-3.42 1.5-4.5a5.18 5.18 0 0 1 3.99-1.62c1.62 0 2.95.55 3.98 1.64 1.04 1.1 1.55 2.59 1.55 4.48 0 1.86-.51 3.35-1.55 4.46zm1.55-12.47a7.86 7.86 0 0 0-3.06-3.56 9.1 9.1 0 0 0-4.95-1.3c-2.07 0-3.92.52-5.56 1.55a10.64 10.64 0 0 0-3.87 4.46 15.48 15.48 0 0 0-1.42 6.86c0 2.61.48 4.9 1.42 6.84a10.62 10.62 0 0 0 3.87 4.48 10.17 10.17 0 0 0 5.56 1.55 9.1 9.1 0 0 0 4.95-1.3 7.86 7.86 0 0 0 3.06-3.56v6.41c0 1.02-.82 1.85-1.84 1.85H7.48v6.44h14.78c4.67 0 8.46-3.8 8.46-8.47V6.38h-7.65v4.55zM50.91 23.4a5.2 5.2 0 0 1-3.98 1.66 5.18 5.18 0 0 1-3.98-1.62c-1.01-1.08-1.51-2.58-1.51-4.5s.5-3.42 1.5-4.5a5.18 5.18 0 0 1 3.99-1.62c1.62 0 2.95.55 3.98 1.64 1.04 1.1 1.55 2.59 1.55 4.48 0 1.86-.51 3.35-1.55 4.46zm1.55-12.47a7.86 7.86 0 0 0-3.06-3.56 9.1 9.1 0 0 0-4.95-1.3c-2.07 0-3.92.52-5.56 1.55a10.64 10.64 0 0 0-3.87 4.46 15.48 15.48 0 0 0-1.41 6.86c0 2.61.47 4.9 1.41 6.84a10.62 10.62 0 0 0 3.87 4.48 10.17 10.17 0 0 0 5.56 1.55 9.1 9.1 0 0 0 4.95-1.3 7.86 7.86 0 0 0 3.06-3.56v4.55h7.66V6.38h-7.66v4.55zm43.71-4.82a9.4 9.4 0 0 0-5.01 1.4c-1.52.93-2.71 2.17-3.58 3.73a8.34 8.34 0 0 0-3.33-3.8 9.67 9.67 0 0 0-5.09-1.33c-1.83 0-3.43.4-4.8 1.22a7.5 7.5 0 0 0-3.03 3.33V6.38h-7.7V31.5h7.7V18.18c0-1.74.45-3.08 1.35-4.01.9-.93 2.11-1.4 3.65-1.4 1.46 0 2.62.45 3.46 1.33a5.18 5.18 0 0 1 1.26 3.71V31.5h7.7V18.18c0-1.72.44-3.04 1.33-3.99a4.72 4.72 0 0 1 3.62-1.42c1.47 0 2.63.45 3.49 1.33a5.12 5.12 0 0 1 1.28 3.71V31.5h7.65V16.92c0-3.4-.88-6.04-2.66-7.95-1.77-1.9-4.2-2.86-7.29-2.86zm80.89 0c-1.93 0-3.6.44-5.02 1.3a8.29 8.29 0 0 0-3.22 3.56V6.38h-7.7V31.5h7.7V18.18c0-1.83.46-3.25 1.37-4.24a4.8 4.8 0 0 1 3.71-1.48c1.47 0 2.65.47 3.54 1.42.88.94 1.32 2.26 1.32 3.93V31.5h7.7V16.92c0-3.36-.85-6-2.54-7.93-1.7-1.92-3.98-2.88-6.86-2.88zM208 17.65a6.27 6.27 0 0 1-2.33 4.1 5.2 5.2 0 0 1-4.21.94 5.18 5.18 0 0 1-3.64-2.3c-.8-1.24-1.02-2.8-.68-4.7.34-1.88 1.1-3.27 2.28-4.16a5.18 5.18 0 0 1 4.2-.89c1.6.29 2.81 1.06 3.64 2.33.82 1.26 1.07 2.82.73 4.68zm1.41-7.89a7.86 7.86 0 0 0-2.38-4.04 9.1 9.1 0 0 0-4.64-2.16 10.17 10.17 0 0 0-5.75.54c-1.8.73-3.32 1.97-4.6 3.7a15.48 15.48 0 0 0-2.61 6.5c-.46 2.58-.4 4.9.18 7a10.62 10.62 0 0 0 3.02 5.09 10.16 10.16 0 0 0 5.2 2.5c1.88.35 3.59.21 5.1-.4a7.85 7.85 0 0 0 3.64-2.96l-.8 4.48 7.53 1.35 4.45-24.71-7.53-1.36-.8 4.47zm25.86 17.07a4.86 4.86 0 0 1-3.43 2.08 4.93 4.93 0 0 1-3.9-1.02c-1.14-.9-1.86-2.34-2.15-4.33-.28-2 0-3.59.84-4.78.84-1.2 2-1.9 3.45-2.12 1.45-.2 2.74.15 3.88 1.06.5.4.9.91 1.24 1.52l5.88-4.94a11.37 11.37 0 0 0-5.12-3.65c-2.1-.74-4.37-.93-6.83-.58-2.47.36-4.6 1.19-6.42 2.5-1.81 1.3-3.14 3-3.97 5.1a13.45 13.45 0 0 0-.7 7 13.43 13.43 0 0 0 2.65 6.53 11.34 11.34 0 0 0 5.25 3.77c2.1.74 4.4.94 6.86.58 2.46-.35 4.6-1.18 6.4-2.49a11.37 11.37 0 0 0 3.89-4.96l-7.05-3.07c-.15.68-.4 1.28-.77 1.8zm34.96-20.45h-9.04l-8.27 10.08V6.38h-7.7V31.5h7.7V20.83l8.27 10.67h9.27L260.1 18.94l10.12-12.56z"/><path fill="#F2F2F2" d="M286.58 17.93c-1.23-.47-2.8-.92-4.72-1.38a19.65 19.65 0 0 1-3.9-1.17c-.82-.39-1.24-.97-1.24-1.75 0-.7.23-1.22.68-1.6.45-.37 1.1-.56 1.98-.56 1.1 0 2.03.3 2.77.88a4 4 0 0 1 1.42 2.4l6.76-1.68a10.08 10.08 0 0 0-3.14-4.62c-1.9-1.59-4.45-2.38-7.63-2.38-3.12 0-5.54.7-7.25 2.1a6.72 6.72 0 0 0-2.56 5.46c0 1.74.43 3.11 1.3 4.12.87 1 1.9 1.73 3.1 2.18 1.2.45 2.74.87 4.6 1.26 1.86.42 3.2.82 4.03 1.2.82.37 1.24 1 1.24 1.86 0 .66-.23 1.2-.68 1.6-.45.4-1.11.6-1.98.6a5.17 5.17 0 0 1-3.08-.85 3.34 3.34 0 0 1-1.38-2.47l-7 1.74a9.08 9.08 0 0 0 3.31 4.7c2.04 1.5 4.76 2.24 8.15 2.24 2 0 3.75-.31 5.22-.94a7.72 7.72 0 0 0 3.38-2.61 6.49 6.49 0 0 0 1.17-3.83c0-1.77-.45-3.18-1.35-4.23a7.82 7.82 0 0 0-3.2-2.27z"/><path fill="#000" d="M111.3 64.46V48.74h6.31c1.63 0 2.87.38 3.73 1.15.87.74 1.3 1.71 1.3 2.9 0 .98-.27 1.77-.8 2.37-.53.59-1.18.98-1.94 1.2.9.17 1.64.62 2.22 1.34.59.7.88 1.53.88 2.47 0 1.24-.45 2.27-1.35 3.07-.9.81-2.17 1.22-3.82 1.22h-6.53zm2.88-9.12h3c.81 0 1.43-.19 1.87-.56.43-.37.65-.9.65-1.6 0-.65-.22-1.17-.65-1.54-.42-.4-1.06-.59-1.91-.59h-2.96v4.3zm0 6.78h3.2a3 3 0 0 0 1.98-.58c.48-.4.72-.97.72-1.69 0-.73-.25-1.3-.74-1.72a2.99 2.99 0 0 0-2-.63h-3.16v4.62zm12.77-10.53c-.53 0-.96-.15-1.3-.47-.34-.31-.5-.7-.5-1.19 0-.48.16-.87.5-1.17.34-.31.77-.47 1.3-.47.52 0 .95.16 1.28.47.34.3.51.7.51 1.17 0 .48-.17.88-.51 1.2-.33.3-.76.46-1.28.46zm-1.44 12.87V53.32h2.87v11.14h-2.87zm10.83 0c-1.16 0-2.1-.29-2.8-.86-.7-.57-1.06-1.58-1.06-3.03v-4.85h-1.9v-2.4h1.9l.34-2.98h2.54v2.98h3v2.4h-3v4.87c0 .54.1.92.33 1.13.24.2.65.29 1.22.29h1.39v2.45h-1.96zm9.62.27a6.08 6.08 0 0 1-2.99-.72 5.2 5.2 0 0 1-2.04-2.02 5.98 5.98 0 0 1-.74-3.01c0-1.15.24-2.18.72-3.08.49-.9 1.16-1.6 2.02-2.08.86-.51 1.88-.77 3.05-.77 1.1 0 2.06.24 2.9.72a5.39 5.39 0 0 1 2.65 5.25l-.03.56h-8.46c.06.87.36 1.55.9 2.05.55.5 1.22.74 2 .74.58 0 1.06-.13 1.45-.38.4-.27.7-.62.9-1.04h2.92a5.3 5.3 0 0 1-5.25 3.78zm.02-9.34c-.7 0-1.33.2-1.86.6-.54.4-.89 1-1.04 1.8h5.55a2.42 2.42 0 0 0-.81-1.75c-.5-.44-1.1-.65-1.84-.65zm7.74 3.77v-2.4h9.4v2.4h-9.4zm16.68 5.57c-.99 0-1.85-.16-2.6-.48a4.6 4.6 0 0 1-1.8-1.34 3.87 3.87 0 0 1-.8-1.98h2.9c.08.44.32.81.7 1.12.41.3.93.45 1.56.45s1.08-.12 1.37-.38c.3-.25.45-.54.45-.87 0-.48-.21-.8-.63-.97-.42-.18-1-.35-1.75-.52-.48-.1-.97-.23-1.46-.38-.5-.15-.95-.33-1.37-.56-.4-.24-.73-.54-.99-.9a2.37 2.37 0 0 1-.38-1.37c0-.98.39-1.81 1.17-2.49.79-.67 1.9-1 3.32-1 1.32 0 2.36.3 3.14.91.8.62 1.27 1.46 1.42 2.54h-2.72c-.17-.82-.79-1.24-1.86-1.24-.54 0-.96.1-1.26.32a.94.94 0 0 0-.43.78c0 .33.22.6.65.79.44.2 1.01.37 1.73.54.78.18 1.5.38 2.14.6.65.21 1.18.54 1.57.97.39.42.58 1.03.58 1.82.01.69-.16 1.3-.54 1.86-.37.56-.91.99-1.61 1.3-.7.32-1.54.48-2.5.48zm8.75-13.14c-.53 0-.96-.15-1.3-.47-.34-.31-.5-.7-.5-1.19 0-.48.16-.87.5-1.17.34-.31.77-.47 1.3-.47.52 0 .94.16 1.27.47.35.3.52.7.52 1.17 0 .48-.17.88-.52 1.2-.32.3-.75.46-1.27.46zm-1.44 12.87V53.32h2.87v11.14h-2.87zm5.15 0v-2.32l5.68-6.44h-5.61v-2.38h8.89v2.31l-5.77 6.45h5.88v2.38h-9.07zm16.87.27a6.08 6.08 0 0 1-2.98-.72 5.2 5.2 0 0 1-2.05-2.02 5.98 5.98 0 0 1-.74-3.01c0-1.15.24-2.18.72-3.08.5-.9 1.17-1.6 2.02-2.08.87-.51 1.89-.77 3.06-.77 1.09 0 2.05.24 2.9.72a5.39 5.39 0 0 1 2.65 5.25l-.03.56h-8.47c.06.87.36 1.55.9 2.05.56.5 1.22.74 2 .74.58 0 1.07-.13 1.46-.38.4-.27.7-.62.9-1.04h2.92a5.32 5.32 0 0 1-5.26 3.78zm.03-9.34c-.7 0-1.33.2-1.87.6-.54.4-.88 1-1.03 1.8h5.54a2.42 2.42 0 0 0-.8-1.75c-.5-.44-1.11-.65-1.84-.65zm13.1 9.34a5.23 5.23 0 0 1-4.76-2.86 6.2 6.2 0 0 1-.72-3c0-1.13.24-2.12.72-2.99a5.3 5.3 0 0 1 4.76-2.83c.84 0 1.57.16 2.2.47.63.32 1.13.76 1.52 1.33v-6.56h2.88v16.17h-2.56l-.32-1.6c-.36.5-.83.93-1.43 1.3-.59.38-1.35.57-2.3.57zm.6-2.52c.93 0 1.69-.3 2.27-.92.6-.63.9-1.43.9-2.4s-.3-1.77-.9-2.38a2.95 2.95 0 0 0-2.27-.94c-.9 0-1.67.3-2.26.92-.6.61-.9 1.4-.9 2.38 0 .97.3 1.77.9 2.4a3 3 0 0 0 2.26.94zm18.99-1.08a6 6 0 0 1-1.5-.18l-.84.83c.26.14.6.25 1.03.34.44.1 1.14.18 2.12.27 1.48.14 2.56.49 3.23 1.06a2.92 2.92 0 0 1 1 2.35c0 .66-.17 1.28-.53 1.87-.36.6-.91 1.07-1.66 1.43-.75.38-1.7.56-2.88.56-1.58 0-2.86-.3-3.83-.9a2.88 2.88 0 0 1-1.46-2.64c0-1 .48-1.87 1.46-2.6a4.5 4.5 0 0 1-1.35-.9v-.52l1.95-2.07a3.74 3.74 0 0 1-1.3-2.94c0-.75.18-1.43.54-2.04a4 4 0 0 1 1.57-1.46 5.14 5.14 0 0 1 2.45-.54c.63 0 1.2.1 1.75.27h4.22v1.75l-1.9.14c.29.57.44 1.2.44 1.88a3.8 3.8 0 0 1-2.11 3.5c-.67.36-1.47.54-2.4.54zm0-2.2c.58 0 1.06-.15 1.43-.47.4-.31.59-.76.59-1.34 0-.59-.2-1.04-.59-1.35a2.16 2.16 0 0 0-1.43-.47c-.62 0-1.11.15-1.48.47-.38.31-.57.76-.57 1.35 0 .58.2 1.03.57 1.34.37.32.86.47 1.48.47zm-2.7 6.9c0 .55.26.96.77 1.23.52.28 1.16.43 1.9.43.72 0 1.3-.15 1.76-.45.44-.29.67-.68.67-1.17 0-.4-.15-.74-.45-1.01-.28-.27-.86-.43-1.73-.5-.61-.04-1.18-.1-1.7-.2-.44.24-.75.5-.95.79-.18.28-.27.58-.27.88zm14.6-1.1c-.95 0-1.74-.15-2.35-.45a3.26 3.26 0 0 1-1.37-1.24c-.3-.5-.45-1.07-.45-1.68 0-1.03.4-1.87 1.2-2.52.82-.64 2.03-.96 3.65-.96h2.82v-.27c0-.76-.21-1.33-.65-1.68a2.45 2.45 0 0 0-1.61-.54c-.59 0-1.1.14-1.53.42-.43.27-.7.68-.8 1.22h-2.81c.07-.81.34-1.52.8-2.11.48-.6 1.1-1.06 1.85-1.37.74-.33 1.58-.5 2.51-.5 1.59 0 2.84.4 3.75 1.2.91.78 1.37 1.9 1.37 3.36v6.85h-2.45l-.27-1.8c-.33.6-.8 1.1-1.39 1.48-.58.4-1.34.59-2.27.59zm.65-2.25c.83 0 1.46-.27 1.91-.8.47-.55.76-1.21.88-2h-2.45c-.76 0-1.3.14-1.64.42-.33.27-.5.6-.5 1.01 0 .44.17.77.5 1.01.33.24.77.36 1.3.36zm8.47 1.98V53.32h2.54l.24 1.5c.36-.53.83-.96 1.42-1.27.6-.33 1.28-.5 2.06-.5 1.72 0 2.94.67 3.66 2 .4-.61.95-1.1 1.62-1.46a4.78 4.78 0 0 1 2.24-.54c1.46 0 2.57.44 3.35 1.3.78.87 1.17 2.14 1.17 3.82v6.29h-2.88v-6.02c0-.96-.18-1.7-.56-2.2-.36-.5-.92-.76-1.68-.76-.78 0-1.4.28-1.89.85-.46.57-.7 1.36-.7 2.38v5.75h-2.87v-6.02c0-.96-.18-1.7-.56-2.2-.37-.5-.95-.76-1.73-.76-.76 0-1.38.28-1.86.85-.46.57-.7 1.36-.7 2.38v5.75h-2.87zm26.43.27a6.08 6.08 0 0 1-2.98-.72 5.2 5.2 0 0 1-2.04-2.02 5.98 5.98 0 0 1-.75-3.01c0-1.15.24-2.18.72-3.08.5-.9 1.17-1.6 2.02-2.08.87-.51 1.89-.77 3.06-.77 1.09 0 2.06.24 2.9.72a5.39 5.39 0 0 1 2.65 5.25l-.03.56h-8.46c.06.87.36 1.55.9 2.05.55.5 1.21.74 2 .74.58 0 1.06-.13 1.45-.38.4-.27.7-.62.9-1.04h2.92a5.3 5.3 0 0 1-5.26 3.78zm.03-9.34c-.7 0-1.33.2-1.87.6-.54.4-.88 1-1.03 1.8h5.55a2.42 2.42 0 0 0-.81-1.75c-.5-.44-1.11-.65-1.84-.65zm12.58 9.34c-.99 0-1.85-.16-2.6-.48a4.6 4.6 0 0 1-1.8-1.34 3.87 3.87 0 0 1-.8-1.98h2.9c.08.44.32.81.7 1.12.41.3.93.45 1.56.45s1.08-.12 1.37-.38c.3-.25.45-.54.45-.87 0-.48-.21-.8-.63-.97-.42-.18-1-.35-1.75-.52-.48-.1-.97-.23-1.46-.38a7.5 7.5 0 0 1-1.37-.56c-.4-.24-.73-.54-.99-.9a2.37 2.37 0 0 1-.38-1.37c0-.98.39-1.81 1.17-2.49.79-.67 1.9-1 3.32-1 1.32 0 2.36.3 3.14.91.8.62 1.27 1.46 1.42 2.54h-2.72c-.17-.82-.79-1.24-1.86-1.24-.54 0-.96.1-1.26.32a.94.94 0 0 0-.43.78c0 .33.22.6.65.79.44.2 1.01.37 1.73.54.78.18 1.5.38 2.13.6.66.21 1.19.54 1.58.97.38.42.58 1.03.58 1.82.01.69-.17 1.3-.54 1.86s-.91.99-1.62 1.3c-.7.32-1.53.48-2.49.48z" opacity=".8"/></svg>