<svg xmlns="http://www.w3.org/2000/svg" width="150" height="26" fill="#000251"><path d="M.87 20.08V1.38h6.92c1.5 0 2.73.25 3.71.75s1.71 1.18 2.2 2.06c.47.87.71 1.85.71 2.93a6 6 0 0 1-.7 2.86 5.2 5.2 0 0 1-2.16 2.09c-.97.51-2.23.77-3.76.77h-3.5v7.24H.87zm3.42-10.02h3.28c1.2 0 2.05-.26 2.57-.77.53-.54.8-1.26.8-2.17 0-.92-.27-1.64-.8-2.16-.52-.53-1.37-.8-2.57-.8H4.3v5.9zm18.4 10.34a6.63 6.63 0 0 1-5.9-3.31 7.32 7.32 0 0 1-.88-3.64 7 7 0 0 1 .9-3.6 6.57 6.57 0 0 1 5.91-3.34c1.27 0 2.4.3 3.42.88a6.32 6.32 0 0 1 2.43 2.46 7 7 0 0 1 .91 3.6c0 1.38-.3 2.59-.9 3.64a6.38 6.38 0 0 1-2.44 2.43 6.84 6.84 0 0 1-3.44.88zm0-2.96c.9 0 1.67-.33 2.33-1 .66-.67.99-1.67.99-2.99 0-1.31-.33-2.3-1-2.96a3.17 3.17 0 0 0-4.65 0c-.63.66-.95 1.65-.95 2.96 0 1.32.32 2.32.96 3 .66.66 1.43.98 2.33.98zm11.97 2.64L30.79 6.83h3.39l2.3 9.54 2.67-9.54h3.79l2.67 9.54 2.33-9.54h3.39l-3.9 13.25h-3.55l-2.84-9.91-2.83 9.91h-3.55zm24.8.32a7.23 7.23 0 0 1-3.56-.85 6.19 6.19 0 0 1-2.43-2.4 7.11 7.11 0 0 1-.88-3.59c0-1.37.28-2.59.85-3.66a6.33 6.33 0 0 1 2.4-2.48c1.04-.6 2.25-.91 3.64-.91 1.3 0 2.45.28 3.45.85s1.77 1.36 2.32 2.35a6.41 6.41 0 0 1 .83 3.9l-.03.67H55.98a3.48 3.48 0 0 0 1.07 2.43c.66.6 1.45.89 2.38.89.7 0 1.27-.16 1.73-.46.48-.32.84-.73 1.07-1.23h3.47a6.32 6.32 0 0 1-3.39 3.9c-.83.4-1.79.59-2.86.59zm.02-11.11a3.6 3.6 0 0 0-2.22.72 3.23 3.23 0 0 0-1.23 2.14h6.6a2.88 2.88 0 0 0-.96-2.09 3.2 3.2 0 0 0-2.19-.77zm9.5 10.79V6.83h3.05l.32 2.48a5.47 5.47 0 0 1 4.89-2.8v3.6h-.97c-.74 0-1.41.12-2 .35-.59.23-1.05.63-1.39 1.2a4.88 4.88 0 0 0-.48 2.38v6.04h-3.42zm16.8.32a7.23 7.23 0 0 1-3.56-.85 6.19 6.19 0 0 1-2.43-2.4 7.11 7.11 0 0 1-.88-3.59c0-1.37.29-2.59.86-3.66a6.33 6.33 0 0 1 2.4-2.48c1.03-.6 2.24-.91 3.63-.91 1.3 0 2.45.28 3.45.85s1.77 1.36 2.32 2.35a6.41 6.41 0 0 1 .83 3.9c0 .22 0 .44-.03.67H82.3a3.48 3.48 0 0 0 1.07 2.43c.66.6 1.45.89 2.38.89.7 0 1.27-.16 1.74-.46.48-.32.83-.73 1.06-1.23h3.48a6.33 6.33 0 0 1-3.4 3.9c-.83.4-1.79.59-2.85.59zm.02-11.11a3.6 3.6 0 0 0-2.21.72 3.23 3.23 0 0 0-1.23 2.14h6.6a2.88 2.88 0 0 0-.97-2.09 3.2 3.2 0 0 0-2.19-.77zm15.6 11.11a6.22 6.22 0 0 1-5.67-3.4 7.39 7.39 0 0 1-.85-3.57c0-1.34.28-2.52.85-3.55a6.3 6.3 0 0 1 5.66-3.37c1 0 1.87.19 2.62.56.75.37 1.36.9 1.82 1.58V.85h3.42v19.23h-3.05l-.37-1.9c-.43.6-1 1.1-1.71 1.55-.7.45-1.6.67-2.73.67zm.72-3c1.1 0 2-.36 2.7-1.09a3.98 3.98 0 0 0 1.06-2.86c0-1.15-.35-2.1-1.07-2.83a3.51 3.51 0 0 0-2.7-1.12c-1.08 0-1.98.37-2.7 1.1a3.88 3.88 0 0 0-1.06 2.83c0 1.16.36 2.1 1.07 2.86a3.57 3.57 0 0 0 2.7 1.12zm24.83 3c-1 0-1.87-.19-2.62-.56a4.72 4.72 0 0 1-1.81-1.58l-.38 1.82h-3.05V.85h3.42v7.88a5.12 5.12 0 0 1 4.43-2.22 6.22 6.22 0 0 1 5.67 3.4c.57 1.04.86 2.24.86 3.57 0 1.34-.29 2.53-.86 3.58a6.56 6.56 0 0 1-2.32 2.46c-.98.59-2.1.88-3.34.88zm-.72-3c1.08 0 1.98-.36 2.7-1.09a3.89 3.89 0 0 0 1.06-2.83c0-1.16-.35-2.1-1.06-2.86a3.57 3.57 0 0 0-2.7-1.12 3.6 3.6 0 0 0-2.73 1.12 3.94 3.94 0 0 0-1.04 2.83c0 1.16.35 2.12 1.04 2.86.72.73 1.62 1.1 2.73 1.1zm10.75 8.56 3.07-6.76h-.8l-5.16-12.37h3.72l3.7 9.32 3.88-9.32h3.64l-8.42 19.13h-3.63z"/></svg>